<svg width="33" height="33" viewBox="0 0 33 33" fill="none" xmlns="http://www.w3.org/2000/svg">
<path d="M29.601 2.401L29.6123 29.601L2.41226 29.6123L2.40099 2.41228L29.601 2.401Z" fill="#FFC5EA"/>
<path d="M12.0093 22.4083L12.0083 20.0083L14.4083 20.0073L14.4093 22.4073L12.0093 22.4083Z" fill="black"/>
<path d="M16.8093 22.4063L16.8083 20.0063L19.2083 20.0053L19.2093 22.4053L16.8093 22.4063Z" fill="black"/>
<path d="M9.60829 20.0093L9.60729 17.6093L12.0073 17.6083L12.0083 20.0083L9.60829 20.0093Z" fill="black"/>
<path d="M19.2083 20.0053L19.2073 17.6053L21.6073 17.6043L21.6083 20.0043L19.2083 20.0053Z" fill="black"/>
<path d="M12.0051 12.4083L12.0041 10.0083L14.4041 10.0073L14.4051 12.4073L12.0051 12.4083Z" fill="black"/>
<path d="M16.8051 12.4063L16.8041 10.0063L19.2041 10.0053L19.2051 12.4053L16.8051 12.4063Z" fill="black"/>
<path d="M9.60414 10.0093L9.60315 7.60928L12.0031 7.60829L12.0041 10.0083L9.60414 10.0093Z" fill="black"/>
<path d="M19.2041 10.0053L19.2031 7.6053L21.6031 7.60431L21.6041 10.0043L19.2041 10.0053Z" fill="black"/>
<path d="M14.4103 24.8073L14.4093 22.4073L16.8093 22.4063L16.8103 24.8063L14.4103 24.8073Z" fill="black"/>
<path d="M14.4061 14.8073L14.4051 12.4073L16.8051 12.4063L16.8061 14.8063L14.4061 14.8073Z" fill="black"/>
<path d="M29.601 2.40099L29.6 0.000994238L2.4 0.0122677L2.40099 2.41227L29.601 2.40099Z" fill="black"/>
<path d="M0.0122681 29.6133L2.41227 29.6123L2.40099 2.41227L0.000994715 2.41326L0.0122681 29.6133Z" fill="black"/>
<path d="M2.41227 29.6123L2.41326 32.0123L29.6133 32.001L29.6123 29.601L2.41227 29.6123Z" fill="black"/>
<path d="M29.6123 29.601L32.0123 29.6L32.001 2.4L29.601 2.40099L29.6123 29.601Z" fill="black"/>
</svg>
