<svg width="33" height="33" viewBox="0 0 33 33" fill="none" xmlns="http://www.w3.org/2000/svg">
<path d="M2.40391 2.44809L29.6039 2.4039L29.6481 29.6039L2.4481 29.648L2.40391 2.44809Z" fill="#FFC5EA"/>
<path d="M22.4325 20.0156L20.0325 20.0195L20.0286 17.6195L22.4286 17.6156L22.4325 20.0156Z" fill="black"/>
<path d="M22.4247 15.2156L20.0247 15.2195L20.0208 12.8195L22.4208 12.8156L22.4247 15.2156Z" fill="black"/>
<path d="M20.0364 22.4195L17.6364 22.4234L17.6325 20.0234L20.0325 20.0195L20.0364 22.4195Z" fill="black"/>
<path d="M20.0208 12.8195L17.6208 12.8234L17.6169 10.4234L20.0169 10.4195L20.0208 12.8195Z" fill="black"/>
<path d="M12.4325 20.0318L10.0325 20.0357L10.0286 17.6357L12.4286 17.6318L12.4325 20.0318Z" fill="black"/>
<path d="M12.4247 15.2318L10.0247 15.2357L10.0208 12.8357L12.4208 12.8318L12.4247 15.2318Z" fill="black"/>
<path d="M10.0364 22.4357L7.63638 22.4396L7.63248 20.0396L10.0325 20.0357L10.0364 22.4357Z" fill="black"/>
<path d="M10.0208 12.8357L7.62078 12.8396L7.61689 10.4396L10.0169 10.4357L10.0208 12.8357Z" fill="black"/>
<path d="M24.8286 17.6117L22.4286 17.6156L22.4247 15.2156L24.8247 15.2117L24.8286 17.6117Z" fill="black"/>
<path d="M14.8286 17.6279L12.4286 17.6318L12.4247 15.2318L14.8247 15.2279L14.8286 17.6279Z" fill="black"/>
<path d="M2.4039 2.44808L0.00389857 2.45198L0.0480877 29.6519L2.44808 29.648L2.4039 2.44808Z" fill="black"/>
<path d="M29.6519 32.0039L29.648 29.6039L2.44808 29.648L2.45198 32.048L29.6519 32.0039Z" fill="black"/>
<path d="M29.648 29.6039L32.048 29.6L32.0039 2.4L29.6039 2.4039L29.648 29.6039Z" fill="black"/>
<path d="M29.6039 2.4039L29.6 0.00389857L2.4 0.0480877L2.4039 2.44808L29.6039 2.4039Z" fill="black"/>
</svg>
