<svg width="33" height="33" viewBox="0 0 33 33" fill="none" xmlns="http://www.w3.org/2000/svg">
<path d="M2.4476 29.6475L2.40387 2.44758L29.6038 2.40385L29.6476 29.6038L2.4476 29.6475Z" fill="#FFC5EA"/>
<path d="M20.0154 9.61928L20.0193 12.0193L17.6193 12.0231L17.6154 9.62314L20.0154 9.61928Z" fill="black"/>
<path d="M15.2154 9.627L15.2193 12.027L12.8193 12.0309L12.8154 9.63086L15.2154 9.627Z" fill="black"/>
<path d="M22.4193 12.0154L22.4231 14.4154L20.0231 14.4193L20.0193 12.0193L22.4193 12.0154Z" fill="black"/>
<path d="M12.8193 12.0309L12.8231 14.4308L10.4231 14.4347L10.4193 12.0347L12.8193 12.0309Z" fill="black"/>
<path d="M20.0315 19.6193L20.0353 22.0193L17.6353 22.0231L17.6315 19.6231L20.0315 19.6193Z" fill="black"/>
<path d="M15.2315 19.627L15.2353 22.027L12.8354 22.0308L12.8315 19.6308L15.2315 19.627Z" fill="black"/>
<path d="M22.4353 22.0154L22.4392 24.4154L20.0392 24.4193L20.0353 22.0193L22.4353 22.0154Z" fill="black"/>
<path d="M12.8354 22.0308L12.8392 24.4308L10.4392 24.4347L10.4354 22.0347L12.8354 22.0308Z" fill="black"/>
<path d="M17.6116 7.22314L17.6154 9.62314L15.2154 9.627L15.2116 7.227L17.6116 7.22314Z" fill="black"/>
<path d="M17.6276 17.2231L17.6315 19.6231L15.2315 19.627L15.2276 17.227L17.6276 17.2231Z" fill="black"/>
<path d="M2.44759 29.6476L2.45144 32.0475L29.6514 32.0038L29.6475 29.6038L2.44759 29.6476Z" fill="black"/>
<path d="M32.0038 2.4L29.6038 2.40386L29.6475 29.6038L32.0475 29.6L32.0038 2.4Z" fill="black"/>
<path d="M29.6038 2.40386L29.6 0.00385856L2.4 0.0475888L2.40385 2.44759L29.6038 2.40386Z" fill="black"/>
<path d="M2.40385 2.44759L0.00385808 2.45144L0.0475884 29.6514L2.44759 29.6476L2.40385 2.44759Z" fill="black"/>
</svg>
