<svg width="32" height="32" viewBox="0 0 32 32" fill="none" xmlns="http://www.w3.org/2000/svg">
<g clip-path="url(#clip0_1138_108846)">
<path d="M22.86 18.28V13.71H9.14V18.28H0V32H32V18.28H22.86ZM9.14 30.47H1.53V19.81H9.14V30.47ZM21.33 30.47H10.67V15.24H21.33V30.47ZM30.48 30.47H22.86V19.81H30.48V30.47Z" fill="#000001" fill-opacity="0.68"/>
<path d="M28.95 21.33H24.38V22.86H27.43V24.38H24.38V25.9H27.43V27.43H24.38V28.95H28.95V21.33Z" fill="#000001" fill-opacity="0.68"/>
<path d="M28.95 6.09H25.91V7.62H28.95V6.09Z" fill="#000001" fill-opacity="0.68"/>
<path d="M25.91 0H24.38V1.52H25.91V0Z" fill="#000001" fill-opacity="0.68"/>
<path d="M24.38 1.52H22.86V3.05H24.38V1.52Z" fill="#000001" fill-opacity="0.68"/>
<path d="M18.29 22.86H16.76V16.76H13.72V18.28H15.24V22.86H13.72V24.38H18.29V22.86Z" fill="#000001" fill-opacity="0.68"/>
<path d="M16.76 0H15.24V3.05H16.76V0Z" fill="#000001" fill-opacity="0.68"/>
<path d="M9.14 4.57001V10.66H10.67V12.19H21.33V10.66H22.86V4.57001H21.33V6.09001H19.81V7.62001H18.29V6.09001H16.76V4.57001H15.24V6.09001H13.72V7.62001H12.19V6.09001H10.67V4.57001H9.14ZM18.29 9.14001H19.81V10.66H18.29V9.14001ZM15.24 9.14001H16.76V10.66H15.24V9.14001ZM12.19 9.14001H13.72V10.66H12.19V9.14001Z" fill="#000001" fill-opacity="0.68"/>
<path d="M9.14 1.52H7.62V3.05H9.14V1.52Z" fill="#000001" fill-opacity="0.68"/>
<path d="M7.62001 0H6.10001V1.52H7.62001V0Z" fill="#000001" fill-opacity="0.68"/>
<path d="M7.62 27.43H4.57V25.9H7.62V21.33H3.05V22.86H6.1V24.38H3.05V28.95H7.62V27.43Z" fill="#000001" fill-opacity="0.68"/>
<path d="M6.1 6.09H3.05V7.62H6.1V6.09Z" fill="#000001" fill-opacity="0.68"/>
</g>
<defs>
<clipPath id="clip0_1138_108846">
<rect width="32" height="32" fill="white"/>
</clipPath>
</defs>
</svg>
