<svg width="32" height="32" viewBox="0 0 32 32" fill="none" xmlns="http://www.w3.org/2000/svg">
<g clip-path="url(#clip0_1128_20328)">
<path d="M19.81 28.185H7.62V29.715H19.81V28.185Z" fill="#000001" fill-opacity="0.68"/>
<path d="M7.62001 26.665H6.10001V28.185H7.62001V26.665Z" fill="#000001" fill-opacity="0.68"/>
<path d="M6.1 20.565H10.67V19.045H9.15V17.525H7.62V15.995H6.1V14.475H4.58V15.995H3.05V17.525H1.53V19.045H0V20.565H4.58V26.665H6.1V20.565Z" fill="#000001" fill-opacity="0.68"/>
<path d="M27.43 11.425V5.33496H25.91V11.425H21.34V12.945H22.86V14.475H24.39V15.995H25.91V17.525H27.43V15.995H28.96V14.475H30.48V12.945H32V11.425H27.43Z" fill="#000001" fill-opacity="0.68"/>
<path d="M25.91 3.80499H24.39V5.33499H25.91V3.80499Z" fill="#000001" fill-opacity="0.68"/>
<path d="M24.39 2.28497H12.19V3.80497H24.39V2.28497Z" fill="#000001" fill-opacity="0.68"/>
</g>
<defs>
<clipPath id="clip0_1128_20328">
<rect width="32" height="32" fill="white"/>
</clipPath>
</defs>
</svg>
