<svg width="32" height="32" viewBox="0 0 32 32" fill="none" xmlns="http://www.w3.org/2000/svg">
<g clip-path="url(#clip0_1128_22145)">
<path d="M32 12.19H30.48V19.81H32V12.19Z" fill="#000001" fill-opacity="0.68"/>
<path d="M30.48 19.81H28.95V22.86H30.48V19.81Z" fill="#000001" fill-opacity="0.68"/>
<path d="M30.48 9.14H28.95V12.19H30.48V9.14Z" fill="#000001" fill-opacity="0.68"/>
<path d="M28.95 22.86H27.43V25.9H28.95V22.86Z" fill="#000001" fill-opacity="0.68"/>
<path d="M28.95 6.09H27.43V9.14H28.95V6.09Z" fill="#000001" fill-opacity="0.68"/>
<path d="M27.43 25.9H25.9V27.43H27.43V25.9Z" fill="#000001" fill-opacity="0.68"/>
<path d="M27.43 4.57H25.9V6.09H27.43V4.57Z" fill="#000001" fill-opacity="0.68"/>
<path d="M25.9 27.43H22.86V28.95H25.9V27.43Z" fill="#000001" fill-opacity="0.68"/>
<path d="M24.38 12.19H22.86V10.67H13.71V7.62H12.19V9.14H10.67V10.67H9.14V12.19H7.62V13.71H6.09V15.24H7.62V16.76H9.14V18.29H10.67V19.81H12.19V21.33H13.71V18.29H19.81V19.81H21.33V21.33H19.81V22.86H18.29V24.38H21.33V22.86H24.38V21.33H25.9V13.71H24.38V12.19Z" fill="#000001" fill-opacity="0.68"/>
<path d="M25.9 3.05H22.86V4.57H25.9V3.05Z" fill="#000001" fill-opacity="0.68"/>
<path d="M22.86 28.95H19.81V30.48H22.86V28.95Z" fill="#000001" fill-opacity="0.68"/>
<path d="M22.86 1.52H19.81V3.05H22.86V1.52Z" fill="#000001" fill-opacity="0.68"/>
<path d="M19.81 30.48H12.19V32H19.81V30.48Z" fill="#000001" fill-opacity="0.68"/>
<path d="M19.81 0H12.19V1.52H19.81V0Z" fill="#000001" fill-opacity="0.68"/>
<path d="M12.19 28.95H9.14V30.48H12.19V28.95Z" fill="#000001" fill-opacity="0.68"/>
<path d="M12.19 1.52H9.14V3.05H12.19V1.52Z" fill="#000001" fill-opacity="0.68"/>
<path d="M9.14 27.43H6.09V28.95H9.14V27.43Z" fill="#000001" fill-opacity="0.68"/>
<path d="M9.14 3.05H6.09V4.57H9.14V3.05Z" fill="#000001" fill-opacity="0.68"/>
<path d="M6.09001 25.9H4.57001V27.43H6.09001V25.9Z" fill="#000001" fill-opacity="0.68"/>
<path d="M6.09001 4.57H4.57001V6.09H6.09001V4.57Z" fill="#000001" fill-opacity="0.68"/>
<path d="M4.57 22.86H3.05V25.9H4.57V22.86Z" fill="#000001" fill-opacity="0.68"/>
<path d="M4.57 6.09H3.05V9.14H4.57V6.09Z" fill="#000001" fill-opacity="0.68"/>
<path d="M3.05 19.81H1.52V22.86H3.05V19.81Z" fill="#000001" fill-opacity="0.68"/>
<path d="M3.05 9.14H1.52V12.19H3.05V9.14Z" fill="#000001" fill-opacity="0.68"/>
<path d="M1.52 12.19H0V19.81H1.52V12.19Z" fill="#000001" fill-opacity="0.68"/>
</g>
<defs>
<clipPath id="clip0_1128_22145">
<rect width="32" height="32" fill="white"/>
</clipPath>
</defs>
</svg>
